# xmcd CD database file
#
# Track frame offsets:
#	150
#	14057
#	41343
#	71335
#	86381
#	122376
#	143532
#	158701
#	169115
#	205295
#	222068
#
# Disc length: 3199 seconds
#
# Revision: 0
# Processed by: cddbd v1.5.1PL0 Copyright (c) Steve Scherf et al.
# Submitted via: CDex 1.51
#
DISCID=880c7d0b
DTITLE=Peter Nylander Quartet - Eyes Open
DYEAR=2004
DGENRE=Jazz
TTITLE0=Eyes open
TTITLE1=Naive
TTITLE2=Oblique
TTITLE3=Good things (come in threes)
TTITLE4=Lost and found
TTITLE5=Freeway
TTITLE6=Gnossiennes nr 3
TTITLE7=Discord
TTITLE8=Us
TTITLE9=Supergravity
TTITLE10=And now, peace
EXTD=YEAR: 2004
EXTT0=
EXTT1=
EXTT2=
EXTT3=
EXTT4=
EXTT5=
EXTT6=
EXTT7=
EXTT8=
EXTT9=
EXTT10=
PLAYORDER=
